<svg xmlns="http://www.w3.org/2000/svg" width="1024" height="1024" viewBox="0 0 1024 1024">
  <defs>
    <linearGradient id="bgC" x1="0" y1="0" x2="1" y2="1">
      <stop offset="0" stop-color="#1e293b"/>
      <stop offset="1" stop-color="#0f172a"/>
    </linearGradient>
    <linearGradient id="shineC" x1="0" y1="0" x2="0" y2="1">
      <stop offset="0" stop-color="#ffffff" stop-opacity="0.10"/>
      <stop offset="0.5" stop-color="#ffffff" stop-opacity="0"/>
    </linearGradient>
  </defs>
  <rect width="1024" height="1024" rx="224" fill="url(#bgC)"/>
  <rect width="1024" height="1024" rx="224" fill="url(#shineC)"/>
  <g transform="rotate(8 512 512)">
    <path d="M 470.08 247.30 L 483.25 213.38 L 540.75 213.38 L 553.92 247.30 A 268.00 268.00 0 0 1 589.08 255.32 L 589.08 255.32 L 615.66 230.48 L 667.47 255.43 L 664.62 291.70 A 268.00 268.00 0 0 1 692.81 314.18 L 692.81 314.18 L 727.54 303.33 L 763.40 348.29 L 745.09 379.74 A 268.00 268.00 0 0 1 760.73 412.23 L 760.73 412.23 L 796.73 417.52 L 809.53 473.58 L 779.39 493.97 A 268.00 268.00 0 0 1 779.39 530.03 L 779.39 530.03 L 809.53 550.42 L 796.73 606.48 L 760.73 611.77 A 268.00 268.00 0 0 1 745.09 644.26 L 745.09 644.26 L 763.40 675.71 L 727.54 720.67 L 692.81 709.82 A 268.00 268.00 0 0 1 664.62 732.30 L 664.62 732.30 L 667.47 768.57 L 615.66 793.52 L 589.08 768.68 A 268.00 268.00 0 0 1 553.92 776.70 L 553.92 776.70 L 540.75 810.62 L 483.25 810.62 L 470.08 776.70 A 268.00 268.00 0 0 1 434.92 768.68 L 434.92 768.68 L 408.34 793.52 L 356.53 768.57 L 359.38 732.30 A 268.00 268.00 0 0 1 331.19 709.82 L 331.19 709.82 L 296.46 720.67 L 260.60 675.71 L 278.91 644.26 A 268.00 268.00 0 0 1 263.27 611.77 L 263.27 611.77 L 227.27 606.48 L 214.47 550.42 L 244.61 530.03 A 268.00 268.00 0 0 1 244.61 493.97 L 244.61 493.97 L 214.47 473.58 L 227.27 417.52 L 263.27 412.23 A 268.00 268.00 0 0 1 278.91 379.74 L 278.91 379.74 L 260.60 348.29 L 296.46 303.33 L 331.19 314.18 A 268.00 268.00 0 0 1 359.38 291.70 L 359.38 291.70 L 356.53 255.43 L 408.34 230.48 L 434.92 255.32 A 268.00 268.00 0 0 1 470.08 247.30 Z M 316.00 512.00 a 196.00 196.00 0 1 0 392.00 0 a 196.00 196.00 0 1 0 -392.00 0 Z" fill="#f97316" fill-rule="evenodd"/>
    <path d="M 512.00 420.00 L 512.00 310.00" stroke="#f97316" stroke-width="46" stroke-linecap="round"/>
    <path d="M 599.50 483.57 L 704.11 449.58" stroke="#f97316" stroke-width="46" stroke-linecap="round"/>
    <path d="M 566.08 586.43 L 630.73 675.42" stroke="#f97316" stroke-width="46" stroke-linecap="round"/>
    <path d="M 457.92 586.43 L 393.27 675.42" stroke="#f97316" stroke-width="46" stroke-linecap="round"/>
    <path d="M 424.50 483.57 L 319.89 449.58" stroke="#f97316" stroke-width="46" stroke-linecap="round"/>
    <circle cx="512" cy="512" r="96" fill="#f97316"/>
    <circle cx="512" cy="512" r="40" fill="#0f172a"/>
    <circle cx="600.17" cy="390.65" r="13" fill="#0f172a"/>
    <circle cx="654.66" cy="558.35" r="13" fill="#0f172a"/>
    <circle cx="512.00" cy="662.00" r="13" fill="#0f172a"/>
    <circle cx="369.34" cy="558.35" r="13" fill="#0f172a"/>
    <circle cx="423.83" cy="390.65" r="13" fill="#0f172a"/>
  </g>
</svg>